<!DOCTYPE svg PUBLIC "-//W3C//DTD SVG 1.1//EN" "http://www.w3.org/Graphics/SVG/1.1/DTD/svg11.dtd">
<!-- Uploaded to: SVG Repo, www.svgrepo.com, Transformed by: SVG Repo Mixer Tools -->
<svg height="64px" width="64px" version="1.1" id="Layer_1" xmlns="http://www.w3.org/2000/svg" xmlns:xlink="http://www.w3.org/1999/xlink" viewBox="0 0 512 512" xml:space="preserve" fill="#000000">
<g id="SVGRepo_bgCarrier" stroke-width="0"/>
<g id="SVGRepo_tracerCarrier" stroke-linecap="round" stroke-linejoin="round"/>
<g id="SVGRepo_iconCarrier"> <path style="fill:#57D4D4;" d="M256,155.667c-3.873,0-7.745-1.343-10.873-4.025c-7.827-6.707-15.202-12.772-22.024-18.379 c-32.565-26.783-56.095-46.13-56.095-77.749C167.007,24.385,190.223,0,219.855,0c15.736,0,27.621,6.696,36.144,15.398 C264.523,6.696,276.408,0,292.144,0c29.634,0,52.848,24.385,52.848,55.513c0,31.619-23.53,50.966-56.095,77.749 c-6.821,5.608-14.196,11.673-22.024,18.379C263.745,154.323,259.872,155.667,256,155.667z"/> <path style="fill:#4DBFBF;" d="M266.872,151.642c7.827-6.707,15.202-12.772,22.024-18.379c32.565-26.783,56.095-46.13,56.095-77.749 C344.991,24.385,321.776,0,292.144,0C276.408,0,264.523,6.696,256,15.398v140.268C259.872,155.667,263.745,154.323,266.872,151.642z "/> <path style="fill:#FFC033;" d="M256,122.112c-107.491,0-194.944,87.453-194.944,194.944S148.509,512,256,512 s194.944-87.453,194.944-194.944S363.491,122.112,256,122.112z M256,445.162c-70.751,0-128.106-57.355-128.106-128.106 S185.249,188.95,256,188.95s128.106,57.355,128.106,128.106S326.75,445.162,256,445.162z"/> <path style="fill:#F9A926;" d="M384.106,317.056c0,70.751-57.355,128.106-128.106,128.106V512 c107.491,0,194.944-87.453,194.944-194.944S363.491,122.112,256,122.112v66.838C326.751,188.95,384.106,246.305,384.106,317.056z"/> </g>
</svg>